SplineFontDB: 3.2
FontName: MirjamOrsolic
FullName: MirjamOrsolic
FamilyName: MirjamOrsolic
Weight: Regular
Copyright: Copyright (c) 2024, User
UComments: "2024-3-16: Created with FontForge (http://fontforge.org)"
Version: 001.000
ItalicAngle: 0
UnderlinePosition: -100
UnderlineWidth: 50
Ascent: 800
Descent: 200
InvalidEm: 0
LayerCount: 2
Layer: 0 0 "Stra+AX4A-nji" 1
Layer: 1 0 "Prednji" 0
XUID: [1021 230 -795938946 27193]
StyleMap: 0x0000
FSType: 0
OS2Version: 0
OS2_WeightWidthSlopeOnly: 0
OS2_UseTypoMetrics: 1
CreationTime: 1710585866
ModificationTime: 1712948723
OS2TypoAscent: 0
OS2TypoAOffset: 1
OS2TypoDescent: 0
OS2TypoDOffset: 1
OS2TypoLinegap: 90
OS2WinAscent: 0
OS2WinAOffset: 1
OS2WinDescent: 0
OS2WinDOffset: 1
HheadAscent: 0
HheadAOffset: 1
HheadDescent: 0
HheadDOffset: 1
OS2Vendor: 'PfEd'
MarkAttachClasses: 1
DEI: 91125
Encoding: iso8859-2
UnicodeInterp: none
NameList: AGL For New Fonts
DisplaySize: -48
AntiAlias: 1
FitToEm: 0
WinInfo: 0 38 12
BeginPrivate: 0
EndPrivate
BeginChars: 256 21

StartChar: M
Encoding: 77 77 0
Width: 598
Flags: HMW
LayerCount: 2
Fore
SplineSet
0 546 m 1024
158 18 m 1
 158 -2.6923828125 26 -6.154296875 26 21 c 0
 26 23 69 503 69 503 c 1
 79.50390625 547.139648438 161 564.791992188 204 506 c 1
 296 351 l 1
 388 496 l 1
 410 545 491 562 529 502 c 1
 529 502 567.092489084 19.8956824719 568 16 c 0
 572.320311437 -2.54585025021 436.668958485 -7.95349345821 433 16 c 0
 432.545737055 18.9657420586 405 359 405 359 c 1
 293 235 l 1
 181 361 l 1
 158 18 l 1
EndSplineSet
Validated: 33
EndChar

StartChar: i
Encoding: 105 105 1
Width: 217
Flags: HW
LayerCount: 2
Fore
SplineSet
53 422 m 5
 97.00390625 405.869140625 137.311523438 409.177734375 176 421 c 5
 184.2421875 450.616210938 190.857421875 479.474609375 171 496 c 5
 135.193359375 514.02734375 96.70703125 515.663085938 53 495 c 5
 36 478 44.244140625 446.333007812 53 422 c 5
53 0 m 5
 53 393 l 5
 109.456054688 378.669921875 140.806640625 386.654296875 174 393 c 5
 174 393 172 -1 172 0 c 4
 172 1 53 0 53 0 c 5
EndSplineSet
Validated: 41
EndChar

StartChar: r
Encoding: 114 114 2
Width: 372
Flags: HW
LayerCount: 2
Fore
SplineSet
70 6 m 5
 111.525390625 -7.5732421875 148.932617188 2.2001953125 175 7 c 5
 174 268 l 5
 196.510742188 288.061523438 227.353515625 324.428710938 251 293 c 5
 259 286 l 5
 265 256 l 5
 318.939453125 240.2421875 350.315429688 257.71484375 328 340 c 5
 290.544921875 407.36328125 192.234375 453.5703125 157 360 c 5
 150 389 l 5
 118.552734375 413.662109375 83.78515625 405.655273438 63 373 c 5
 70 6 l 5
EndSplineSet
Validated: 41
EndChar

StartChar: j
Encoding: 106 106 3
Width: 212
Flags: HW
LayerCount: 2
Fore
SplineSet
70 391 m 1
 94.6669921875 384.358398438 150.333007812 383.65625 175 394 c 1
 184.623046875 415.504882812 174.663085938 449.694335938 171 466 c 1
 148.764648438 474.270507812 90.560546875 472.192382812 63 466 c 1
 50.9560546875 443.447265625 63.38671875 408.2734375 70 391 c 1
-72 -28 m 1
 -32.1796875 -4.80859375 -8.5361328125 -17.703125 11 -26 c 1
 6.6923828125 -42.236328125 11.59375 -51.4267578125 18 -65 c 1
 39.6669921875 -81.6982421875 55 -71 72 -64 c 1
 68 357 l 1
 90.2705078125 346.73828125 146.453125 345.275390625 174 357 c 1
 174 -132 l 1
 121 -154 19.787109375 -167.8828125 -51 -141 c 1
 -63.923828125 -109.955078125 -80.2939453125 -61.7109375 -72 -28 c 1
EndSplineSet
Validated: 41
EndChar

StartChar: m
Encoding: 109 109 4
Width: 562
Flags: HW
LayerCount: 2
Fore
SplineSet
24 14 m 17
 66.6669921875 -4 111.333007812 -6.666015625 154 10 c 1
 122.747939547 96.2691817659 155.640625 458.649414062 286 52 c 1
 327.510742188 189.1796875 454.5859375 434.33203125 414 2 c 1
 414 -7.69140625 548 -12.8671875 548 20 c 0
 548 28 526 230 526 230 c 1
 552.59375 292.110351562 413.145507812 524.67578125 312 324 c 1
 294 264 l 1
 178.383789062 554.581054688 52.91796875 310.848632812 48 260 c 1
 24 14 l 17
EndSplineSet
Validated: 41
EndChar

StartChar: a
Encoding: 97 97 5
Width: 455
Flags: HW
LayerCount: 2
Fore
SplineSet
372 203 m 5
 332 396 l 5
 371.240269403 428.311783627 411.9071727 417.361900456 438 394 c 5
 394.5625 234.059570312 411.809570312 129.41015625 437 22 c 5
 439.700385023 -11.4795721704 327.261248291 -1.20009962848 336 16 c 4
 336.906064219 17.7833662474 372 203 372 203 c 5
202 86 m 5
 298.754882812 90.6015625 285.646484375 144.140625 291 192 c 5
 280 245 320 288 208 298 c 5
 122.688476562 298.640625 120.459960938 249.385742188 115 187 c 5
 123 155 88 90 202 86 c 5
18 202 m 4
 18 318 87 391 201 391 c 4
 315 391 404 323 404 207 c 4
 404 91 312 -3 198 -3 c 4
 84 -3 18 86 18 202 c 4
EndSplineSet
Validated: 37
EndChar

StartChar: O
Encoding: 79 79 6
Width: 550
Flags: HW
LayerCount: 2
Fore
SplineSet
264 154 m 0
 366 170 346 202 370 330 c 5
 368 410 384 490 312 544 c 1
 310.62109375 549.21484375 261.748046875 601.522460938 190 486 c 0
 137.5390625 401.53125 158 324 158 324 c 5
 162 278 175.565903294 160.867934072 264 154 c 4
 265.993585028 153.845174983 259.061149741 153.225278391 264 154 c 0
18 362 m 0
 18 555 129 712 266 712 c 0
 403 712 514 555 514 362 c 0
 514 169 403 12 266 12 c 0
 129 12 18 169 18 362 c 0
EndSplineSet
Validated: 37
EndChar

StartChar: scaron
Encoding: 185 353 7
Width: 426
Flags: HW
LayerCount: 2
Fore
SplineSet
118 446 m 5
 206.576932328 384.765075588 209.977291593 395.460905006 263 433 c 5
 264.125 444.078125 297.462890625 462.266601562 232 475 c 5
 216.478706449 448.841708799 189.914967886 443.838949333 155 478 c 5
 134 476 123.110351562 470.365234375 118 446 c 5
36 104 m 5
 32.6591796875 107.233398438 67.38671875 184.05078125 136 128 c 5
 175.316694054 46.6354330383 301.853800306 124.776970324 203 152 c 5
 -14.146484375 234.104492188 81.3453721502 325.86899154 70 314 c 5
 76.7617716571 343.258503133 156.610351562 469.345703125 337 318 c 5
 353.828125 271.125 324.881835938 213.130859375 283 251 c 5
 250.083007812 314.981445312 183.078125 298.521484375 168 283 c 5
 148.168855179 228.963993225 187.401500818 269.802609046 308 192 c 5
 337.518162952 162.052425018 377.140625 108.381835938 343 76 c 5
 292.891599226 -11.852439914 140.193165025 -34.9294923317 58 68 c 5
 100 34 57.529296875 31.2880859375 36 104 c 5
EndSplineSet
Validated: 37
EndChar

StartChar: o
Encoding: 111 111 8
Width: 455
Flags: HW
LayerCount: 2
Fore
SplineSet
202 86 m 5
 298.754882812 90.6015625 285.646484375 144.140625 291 192 c 5
 280 245 320 288 208 298 c 5
 122.688476562 298.640625 120.459960938 249.385742188 115 187 c 5
 123 155 88 90 202 86 c 5
18 202 m 4
 18 318 87 391 201 391 c 4
 315 391 404 323 404 207 c 4
 404 91 312 -3 198 -3 c 4
 84 -3 18 86 18 202 c 4
EndSplineSet
Validated: 33
EndChar

StartChar: l
Encoding: 108 108 9
Width: 217
Flags: HW
LayerCount: 2
Fore
SplineSet
50 26 m 1
 34 624 l 1
 89.7210486917 677.560876782 125.207127021 653.540880966 164 628 c 1
 164 628 176.335476117 16.9421995382 176 16 c 0
 164.2734375 -16.9345703125 40.443359375 -1.6572265625 50 26 c 1
EndSplineSet
Validated: 33
EndChar

StartChar: cacute
Encoding: 230 263 10
Width: 428
Flags: HW
LayerCount: 2
Fore
SplineSet
203 431 m 5
 228.30859375 390.16796875 248.111328125 401.063476562 266 401 c 5
 325 478 l 5
 318.41796875 483.036132812 324.865234375 505.447265625 272 513 c 5
 203 431 l 5
398 266 m 1
 398.5 284 399.401367188 289 382 307 c 1
 288.859375 425.764648438 178.428710938 419.978515625 67 316 c 1
 2.5361328125 141.819335938 51.8779296875 107.762695312 93 52 c 1
 160.057617188 -19.765625 301 -10 382 63 c 1
 401.361328125 117.862304688 397.666992188 133.076171875 389 158 c 1
 361 180.264648438 347.666992188 182.665039062 309 157 c 1
 288 118 l 1
 264 94 232.705078125 80.951171875 186 140 c 1
 159.955420053 174.921814 144.545056004 214.380435994 170 254 c 1
 218.09375 317.251101814 242.124023438 288.741765625 280 266 c 1
 342.888671875 213.481445312 375.672851562 240.034179688 398 266 c 1
EndSplineSet
Validated: 41
EndChar

StartChar: ccaron
Encoding: 232 269 11
Width: 428
Flags: HW
LayerCount: 2
Fore
SplineSet
154 446 m 5
 242.577148438 384.764648438 245.977539062 395.4609375 299 433 c 5
 300.125 444.078125 333.462890625 462.266601562 268 475 c 5
 252.478515625 448.841796875 225.915039062 443.838867188 191 478 c 5
 170 476 159.110351562 470.365234375 154 446 c 5
398 266 m 5
 398.5 284 399.401367188 289 382 307 c 5
 288.859375 425.764648438 178.428710938 419.978515625 67 316 c 5
 2.5361328125 141.819335938 51.8779296875 107.762695312 93 52 c 5
 160.057617188 -19.765625 301 -10 382 63 c 5
 401.361328125 117.862304688 397.666992188 133.076171875 389 158 c 5
 361 180.264648438 347.666992188 182.665039062 309 157 c 5
 288 118 l 5
 264 94 232.705078125 80.951171875 186 140 c 5
 159.955420053 174.921814 144.545056004 214.380435994 170 254 c 5
 218.09375 317.251101814 242.124023438 288.741765625 280 266 c 5
 342.888671875 213.481445312 375.672851562 240.034179688 398 266 c 5
EndSplineSet
Validated: 41
EndChar

StartChar: Ccaron
Encoding: 200 268 12
Width: 550
Flags: HW
LayerCount: 2
Fore
SplineSet
161 725 m 1
 249.577148438 663.764648438 252.977539062 674.4609375 306 712 c 1
 307.125 723.078125 347.462890625 773.266601562 282 786 c 1
 266.478515625 759.841796875 224.915039062 755.838867188 190 790 c 1
 169 788 166.110351562 749.365234375 161 725 c 1
418 404 m 1
 438 430 441.401367188 498 424 516 c 1
 339.178783502 655.224533567 215.024840454 717.169953961 86 560 c 1
 -5.26670967808 385.444326883 36.7386764684 121.891598304 110 52 c 1
 177.057617188 -8.5986328125 339 -14.6318359375 420 50 c 1
 458.388671875 114.479492188 476.074099062 123.906259766 432 248 c 1
 399.803710938 270.264648438 396.151367188 225.665039062 374 200 c 1
 352 184 l 5
 328 160 260.705078125 118.951171875 214 178 c 1
 187.725585938 212.921875 158.487304688 348.380859375 168 388 c 1
 178.36328125 482.659179688 262.575195312 562.819335938 308 480 c 1
 370.888671875 427.481445312 395.672851562 378.034179688 418 404 c 1
EndSplineSet
Validated: 41
EndChar

StartChar: Cacute
Encoding: 198 262 13
Width: 550
Flags: HW
LayerCount: 2
Fore
SplineSet
266 689 m 1
 291.30859375 648.16796875 322.111328125 639.063476562 340 639 c 1
 432 751 l 1
 425.41796875 756.036132812 418.865234375 783.447265625 366 791 c 1
 266 689 l 1
418 404 m 1
 438 430 441.401367188 498 424 516 c 1
 339.178783502 655.224533567 215.024840454 717.169953961 86 560 c 1
 -5.26670967808 385.444326883 36.7386764684 121.891598304 110 52 c 1
 177.057617188 -8.5986328125 339 -14.6318359375 420 50 c 1
 458.388671875 114.479492188 476.074099062 123.906259766 432 248 c 1
 399.803710938 270.264648438 398.151367188 209.665039062 376 184 c 1
 352 164 l 1
 328 140 248.705078125 108.951171875 202 168 c 1
 175.72562249 202.921874945 148.487304688 366.380859375 158 406 c 1
 168.36328125 500.659179688 262.575195312 584.819335938 308 502 c 1
 370.888671875 449.481445312 395.672851562 378.034179688 418 404 c 1
EndSplineSet
Validated: 41
EndChar

StartChar: Zcaron
Encoding: 174 381 14
Width: 426
Flags: HW
LayerCount: 2
Fore
SplineSet
172 528 m 5
 125.059634101 493.999999973 132.884140805 460.000000032 156 426 c 5
 320 418 l 5
 48 84 l 5
 29.444937653 77.3294885486 35.3401084784 -7.83221177788 46 0 c 4
 49.2234616383 2.3683950402 410 0 410 0 c 5
 437.865973488 50.2964239617 423.784909466 90.1112107294 410 130 c 5
 208 118 l 5
 414 412 l 5
 424.733256499 448.423155932 434.603001337 485.134076035 414 532 c 5
 172 528 l 5
221 603 m 5
 309.577148438 541.764648438 312.977539062 552.4609375 366 590 c 5
 367.125 601.078125 400.462890625 619.266601562 335 632 c 5
 319.478515625 605.841796875 292.915039062 600.838867188 258 635 c 5
 237 633 226.110351562 627.365234375 221 603 c 5
EndSplineSet
Validated: 41
EndChar

StartChar: zcaron
Encoding: 190 382 15
Width: 356
Flags: HW
LayerCount: 2
Fore
SplineSet
76 320 m 1
 29.0595703125 286 40.8837890625 268 64 234 c 1
 166 226 l 1
 48 84 l 1
 29.444937653 77.3294885486 35.3401084784 -7.83221177788 46 0 c 0
 49.2234616383 2.3683950402 310 0 310 0 c 1
 337.866210938 50.296875 327.78515625 42.111328125 314 82 c 1
 136 88 l 1
 250 220 l 1
 260.733398438 256.422851562 282.602539062 263.133789062 262 310 c 1
 76 320 l 1
81 385 m 1
 169.577148438 323.764648438 172.977539062 334.4609375 226 372 c 1
 227.125 383.078125 260.462890625 401.266601562 195 414 c 1
 179.478515625 387.841796875 152.915039062 382.838867188 118 417 c 1
 97 415 86.1103515625 409.365234375 81 385 c 1
EndSplineSet
Validated: 41
EndChar

StartChar: Scaron
Encoding: 169 352 16
Width: 426
Flags: HW
LayerCount: 2
Fore
SplineSet
125 647 m 5
 213.577148438 585.764648438 216.977539062 596.4609375 270 634 c 5
 271.125 645.078125 304.462890625 663.266601562 239 676 c 5
 223.478515625 649.841796875 196.915039062 644.838867188 162 679 c 5
 141 677 130.110351562 671.365234375 125 647 c 5
36 104 m 5
 25.6527943776 3.93703342797 -32.1863101559 277.046808295 78 166 c 5
 199.380859375 51.9296875 378.612304688 177.961914062 196 252 c 5
 -38.4658203125 372.577148438 54.1038636126 489.571413014 66 494 c 5
 55.4349658728 473.712303426 147.30859375 658.202148438 326 502 c 5
 343.62890625 453.194335938 320.469726562 387.431640625 270 446 c 5
 195.563476562 470.888671875 152.462890625 465.29296875 144 456 c 5
 124.463074182 402.006184222 137.158495619 387.163874208 290 314 c 5
 358.2265625 307.255859375 417.728486076 151.328106045 372 112 c 5
 306.021484375 -20.6923828125 136.232421875 -36.1201171875 58 78 c 5
 100 44 57.529296875 31.2880859375 36 104 c 5
EndSplineSet
Validated: 37
EndChar

StartChar: Dcroat
Encoding: 208 272 17
Width: 586
Flags: HW
LayerCount: 2
Fore
SplineSet
228 244 m 1
 230 100 l 1
 230 100 354.964564214 148.289478627 356 150 c 0
 459.525698584 321.022599909 338.001953125 513.172851562 216 526 c 1
 244.547851562 383.359375 253.128043571 356.488904035 232 358 c 0
 116.062566037 366.291945633 237.547546955 365.60896618 278 360 c 1
 287.041233379 334.781728347 325.319817651 298.291822846 280 246 c 1
 228 244 l 1
118 8 m 9
 110 250 l 1
 50 256 l 1
 22.4693673643 291.965945759 30.8487348311 346.973019222 62 364 c 1
 96 368 l 1
 110 694 l 1
 402.502929688 767.3984375 927.1640625 -115.595703125 118 8 c 9
EndSplineSet
Validated: 37
EndChar

StartChar: dcroat
Encoding: 240 273 18
Width: 525
Flags: HW
LayerCount: 2
Fore
SplineSet
486 478 m 1
 507.272802966 497.984233819 516.20037936 522.105796725 490 558 c 9
 490 558 422.497416646 554.000009213 423.248708323 560.000004606 c 8
 424 566 423.064086383 494.000005278 422.532043192 490.000002639 c 0
 422 486 486 478 486 478 c 1
254 572 m 1
 225.489257812 553.333007812 230.444335938 506.666992188 256 488 c 1
 332 490 l 1
 332 490 325.991360691 558 325.995680346 558 c 0
 326 558 254 572 254 572 c 1
372 203 m 1
 325.995680346 558 l 0
 312 666 l 1
 351.240234375 698.311523438 415.907226562 693.362304688 442 670 c 1
 433.854722796 640.008422771 423.248708323 560.000004606 423.248708323 560.000004606 c 1
 422.532043192 490.000002639 l 1
 422.532043192 490.000002639 421.579559857 87.7516328911 437 22 c 1
 439.700385023 -11.4795721704 327.261248291 -1.20009962848 336 16 c 0
 336.906064219 17.7833662474 372 203 372 203 c 1
202 86 m 1
 298.754882812 90.6015625 285.646484375 144.140625 291 192 c 1
 280 245 320 288 208 298 c 1
 122.688476562 298.640625 120.459960938 249.385742188 115 187 c 1
 123 155 88 90 202 86 c 1
18 202 m 0
 18 318 87 391 201 391 c 0
 315 391 404 323 404 207 c 0
 404 91 312 -3 198 -3 c 0
 84 -3 18 86 18 202 c 0
EndSplineSet
Validated: 37
EndChar

StartChar: V
Encoding: 86 86 19
Width: 690
Flags: HW
LayerCount: 2
Fore
SplineSet
92 658 m 1
 155.568359375 693.059570312 217.946289062 726.8671875 292 668 c 1
 362 244 l 1
 399.461914062 150.166015625 404.688476562 244.064453125 428 254 c 1
 504 680 l 1
 557.650390625 701.92578125 610.775681003 726.630705749 680 666 c 1
 516 48 l 1
 452 2.7900390625 334 14.708984375 270 46 c 1
 92 658 l 1
EndSplineSet
Validated: 33
EndChar

StartChar: E
Encoding: 69 69 20
Width: 512
Flags: HW
LayerCount: 2
Fore
SplineSet
46 706 m 1
 46.0386974311 369.412586402 36.5586537846 213.533170706 58 30 c 1
 177.999999991 18.3612075341 262 16.4228515625 382 38 c 1
 404.440429688 75.3330078125 407.790039062 120.666992188 378 158 c 1
 202 174 l 1
 172.31640625 252.46875 198.700195312 258.064453125 200 304 c 1
 284 310 l 1
 321.798555245 351.885767227 309.093276342 389.393170545 286 426 c 1
 196 434 l 1
 200 588 l 1
 384 588 l 1
 404.233398438 615.124023438 439.279302048 633.004867993 386 706 c 1
 213.786913352 734.176284412 136.192439791 719.296462325 46 706 c 1
EndSplineSet
Validated: 41
EndChar
